%TF.GenerationSoftware,KiCad,Pcbnew,(5.1.8)-1*%
%TF.CreationDate,2020-12-20T09:07:50+01:00*%
%TF.ProjectId,Traffic Light,54726166-6669-4632-904c-696768742e6b,rev?*%
%TF.SameCoordinates,Original*%
%TF.FileFunction,Legend,Bot*%
%TF.FilePolarity,Positive*%
%FSLAX46Y46*%
G04 Gerber Fmt 4.6, Leading zero omitted, Abs format (unit mm)*
G04 Created by KiCad (PCBNEW (5.1.8)-1) date 2020-12-20 09:07:50*
%MOMM*%
%LPD*%
G01*
G04 APERTURE LIST*
%ADD10C,0.120000*%
%ADD11C,0.150000*%
G04 APERTURE END LIST*
D10*
%TO.C,J1*%
X118110000Y-96012000D02*
X118110000Y-97282000D01*
X119380000Y-96012000D02*
X118110000Y-96012000D01*
X127380000Y-98324929D02*
X127380000Y-98722000D01*
X126620000Y-98324929D02*
X126620000Y-98722000D01*
X127380000Y-107382000D02*
X127380000Y-101382000D01*
X126620000Y-107382000D02*
X127380000Y-107382000D01*
X126620000Y-101382000D02*
X126620000Y-107382000D01*
X125730000Y-98722000D02*
X125730000Y-101382000D01*
X124840000Y-98324929D02*
X124840000Y-98722000D01*
X124080000Y-98324929D02*
X124080000Y-98722000D01*
X124840000Y-107382000D02*
X124840000Y-101382000D01*
X124080000Y-107382000D02*
X124840000Y-107382000D01*
X124080000Y-101382000D02*
X124080000Y-107382000D01*
X123190000Y-98722000D02*
X123190000Y-101382000D01*
X122300000Y-98324929D02*
X122300000Y-98722000D01*
X121540000Y-98324929D02*
X121540000Y-98722000D01*
X122300000Y-107382000D02*
X122300000Y-101382000D01*
X121540000Y-107382000D02*
X122300000Y-107382000D01*
X121540000Y-101382000D02*
X121540000Y-107382000D01*
X120650000Y-98722000D02*
X120650000Y-101382000D01*
X119760000Y-98392000D02*
X119760000Y-98722000D01*
X119000000Y-98392000D02*
X119000000Y-98722000D01*
X119660000Y-101382000D02*
X119660000Y-107382000D01*
X119540000Y-101382000D02*
X119540000Y-107382000D01*
X119420000Y-101382000D02*
X119420000Y-107382000D01*
X119300000Y-101382000D02*
X119300000Y-107382000D01*
X119180000Y-101382000D02*
X119180000Y-107382000D01*
X119060000Y-101382000D02*
X119060000Y-107382000D01*
X119760000Y-107382000D02*
X119760000Y-101382000D01*
X119000000Y-107382000D02*
X119760000Y-107382000D01*
X119000000Y-101382000D02*
X119000000Y-107382000D01*
X118050000Y-101382000D02*
X118050000Y-98722000D01*
X128330000Y-101382000D02*
X118050000Y-101382000D01*
X128330000Y-98722000D02*
X128330000Y-101382000D01*
X118050000Y-98722000D02*
X128330000Y-98722000D01*
D11*
X116562380Y-101333666D02*
X117276666Y-101333666D01*
X117419523Y-101286047D01*
X117514761Y-101190809D01*
X117562380Y-101047952D01*
X117562380Y-100952714D01*
X117562380Y-102333666D02*
X117562380Y-101762238D01*
X117562380Y-102047952D02*
X116562380Y-102047952D01*
X116705238Y-101952714D01*
X116800476Y-101857476D01*
X116848095Y-101762238D01*
%TD*%
M02*
