M48
; DRILL file {KiCad (5.1.8)-1} date 12/20/20 09:07:54
; FORMAT={-:-/ absolute / inch / decimal}
; #@! TF.CreationDate,2020-12-20T09:07:54+01:00
; #@! TF.GenerationSoftware,Kicad,Pcbnew,(5.1.8)-1
; #@! TF.FileFunction,Plated,1,2,PTH
FMAT,2
INCH
T1C0.0276
T2C0.0354
T3C0.0394
T4C0.0984
%
G90
G05
T1
X4.95Y-3.45
X4.95Y-3.65
X4.85Y-3.45
X4.85Y-3.65
X4.75Y-3.45
X4.75Y-3.65
T2
X4.8Y-3.15
X4.9Y-3.15
X4.8Y-2.59
X4.9Y-2.59
X4.8Y-2.87
X4.9Y-2.87
T3
X4.7Y-3.83
X4.8Y-3.83
X4.9Y-3.83
X5.0Y-3.83
T4
X5.21Y-3.55
X4.49Y-2.6
X4.49Y-3.55
X5.21Y-2.6
T0
M30
