%TF.GenerationSoftware,KiCad,Pcbnew,(5.1.8)-1*%
%TF.CreationDate,2020-12-20T09:07:50+01:00*%
%TF.ProjectId,Traffic Light,54726166-6669-4632-904c-696768742e6b,rev?*%
%TF.SameCoordinates,Original*%
%TF.FileFunction,Copper,L1,Top*%
%TF.FilePolarity,Positive*%
%FSLAX46Y46*%
G04 Gerber Fmt 4.6, Leading zero omitted, Abs format (unit mm)*
G04 Created by KiCad (PCBNEW (5.1.8)-1) date 2020-12-20 09:07:50*
%MOMM*%
%LPD*%
G01*
G04 APERTURE LIST*
%TA.AperFunction,ComponentPad*%
%ADD10R,1.800000X1.800000*%
%TD*%
%TA.AperFunction,ComponentPad*%
%ADD11C,1.800000*%
%TD*%
%TA.AperFunction,ComponentPad*%
%ADD12R,1.700000X1.700000*%
%TD*%
%TA.AperFunction,ComponentPad*%
%ADD13O,1.700000X1.700000*%
%TD*%
%TA.AperFunction,ComponentPad*%
%ADD14C,5.000000*%
%TD*%
%TA.AperFunction,ComponentPad*%
%ADD15C,1.400000*%
%TD*%
%TA.AperFunction,ComponentPad*%
%ADD16O,1.400000X1.400000*%
%TD*%
%TA.AperFunction,Conductor*%
%ADD17C,0.250000*%
%TD*%
G04 APERTURE END LIST*
D10*
%TO.P,Red,1*%
%TO.N,Net-(D1-Pad1)*%
X124460000Y-65786000D03*
D11*
%TO.P,Red,2*%
%TO.N,Net-(D1-Pad2)*%
X121920000Y-65786000D03*
%TD*%
%TO.P,Yellow,2*%
%TO.N,Net-(D2-Pad2)*%
X121920000Y-72898000D03*
D10*
%TO.P,Yellow,1*%
%TO.N,Net-(D1-Pad1)*%
X124460000Y-72898000D03*
%TD*%
%TO.P,Green,1*%
%TO.N,Net-(D1-Pad1)*%
X124460000Y-80010000D03*
D11*
%TO.P,Green,2*%
%TO.N,Net-(D3-Pad2)*%
X121920000Y-80010000D03*
%TD*%
D12*
%TO.P,J1,1*%
%TO.N,Net-(D1-Pad1)*%
X119380000Y-97282000D03*
D13*
%TO.P,J1,2*%
%TO.N,Net-(J1-Pad2)*%
X121920000Y-97282000D03*
%TO.P,J1,3*%
%TO.N,Net-(J1-Pad3)*%
X124460000Y-97282000D03*
%TO.P,J1,4*%
%TO.N,Net-(J1-Pad4)*%
X127000000Y-97282000D03*
%TD*%
D14*
%TO.P, ,1*%
%TO.N,N/C*%
X114046000Y-66040000D03*
%TD*%
%TO.P, ,1*%
%TO.N,N/C*%
X132334000Y-66040000D03*
%TD*%
%TO.P, ,1*%
%TO.N,N/C*%
X114046000Y-90170000D03*
%TD*%
%TO.P, ,1*%
%TO.N,N/C*%
X132334000Y-90170000D03*
%TD*%
D15*
%TO.P,R1,1*%
%TO.N,Net-(D1-Pad2)*%
X120650000Y-87630000D03*
D16*
%TO.P,R1,2*%
%TO.N,Net-(J1-Pad2)*%
X120650000Y-92710000D03*
%TD*%
%TO.P,R2,2*%
%TO.N,Net-(J1-Pad3)*%
X123190000Y-92710000D03*
D15*
%TO.P,R2,1*%
%TO.N,Net-(D2-Pad2)*%
X123190000Y-87630000D03*
%TD*%
%TO.P,R3,1*%
%TO.N,Net-(D3-Pad2)*%
X125730000Y-87630000D03*
D16*
%TO.P,R3,2*%
%TO.N,Net-(J1-Pad4)*%
X125730000Y-92710000D03*
%TD*%
D17*
%TO.N,Net-(D1-Pad1)*%
X124460000Y-65786000D02*
X124460000Y-72898000D01*
X124460000Y-72898000D02*
X124460000Y-80010000D01*
X123234999Y-64560999D02*
X119335001Y-64560999D01*
X124460000Y-65786000D02*
X123234999Y-64560999D01*
X119335001Y-64560999D02*
X118110000Y-65786000D01*
X118110000Y-96012000D02*
X119380000Y-97282000D01*
X118110000Y-65786000D02*
X118110000Y-96012000D01*
%TO.N,Net-(D1-Pad2)*%
X121920000Y-65786000D02*
X119888000Y-67818000D01*
X119888000Y-67818000D02*
X119888000Y-85598000D01*
X120650000Y-86360000D02*
X120650000Y-87630000D01*
X119888000Y-85598000D02*
X120650000Y-86360000D01*
%TO.N,Net-(D2-Pad2)*%
X121920000Y-72898000D02*
X120650000Y-74168000D01*
X120650000Y-85090000D02*
X123190000Y-87630000D01*
X120650000Y-74168000D02*
X120650000Y-85090000D01*
%TO.N,Net-(D3-Pad2)*%
X121920000Y-80010000D02*
X121920000Y-84836000D01*
X121920000Y-84836000D02*
X122936000Y-85852000D01*
X123952000Y-85852000D02*
X125730000Y-87630000D01*
X122936000Y-85852000D02*
X123952000Y-85852000D01*
%TO.N,Net-(J1-Pad2)*%
X120650000Y-92710000D02*
X120650000Y-94488000D01*
X120650000Y-94488000D02*
X121920000Y-95758000D01*
X121920000Y-95758000D02*
X121920000Y-97282000D01*
%TO.N,Net-(J1-Pad3)*%
X123190000Y-92710000D02*
X123190000Y-94234000D01*
X123190000Y-94234000D02*
X124714000Y-95758000D01*
X124460000Y-96012000D02*
X124460000Y-97282000D01*
X124714000Y-95758000D02*
X124460000Y-96012000D01*
%TO.N,Net-(J1-Pad4)*%
X125730000Y-92710000D02*
X125730000Y-94234000D01*
X125730000Y-94234000D02*
X127000000Y-95504000D01*
X127000000Y-95504000D02*
X127000000Y-97282000D01*
%TD*%
M02*
