M48
; DRILL file {KiCad (5.1.8)-1} date 12/20/20 06:36:30
; FORMAT={-:-/ absolute / inch / decimal}
; #@! TF.CreationDate,2020-12-20T06:36:30+01:00
; #@! TF.GenerationSoftware,Kicad,Pcbnew,(5.1.8)-1
; #@! TF.FileFunction,Plated,1,2,PTH
FMAT,2
INCH
T1C0.0157
T2C0.0276
T3C0.0354
T4C0.0394
T5C0.0472
T6C0.0551
%
G90
G05
T1
X5.3Y-3.2185
T2
X5.05Y-2.95
X5.15Y-2.85
X5.15Y-3.05
T3
X5.1Y-3.8
X5.1984Y-3.7016
X5.2969Y-3.8
T4
X4.65Y-4.0122
X4.65Y-4.15
X5.5Y-3.3
X5.5Y-3.4
X4.45Y-2.95
X4.7492Y-2.95
T5
X4.65Y-4.45
X5.15Y-4.45
T6
X5.1Y-4.1
X5.5Y-4.1
T4
G00X4.6638Y-3.4606
M15
G01X4.6638Y-3.5394
M16
G05
G00X4.7425Y-3.685
M15
G01X4.8213Y-3.685
M16
G05
G00X4.9Y-3.4606
M15
G01X4.9Y-3.5394
M16
G05
T0
M30
